<svg width="27" height="26" viewBox="0 0 27 26" fill="none" xmlns="http://www.w3.org/2000/svg">
<path opacity="0.4" d="M21.8006 18.8781L21.5545 19.0505L21.5913 19.3487L22.0786 23.2973C22.0787 23.2977 22.0787 23.298 22.0788 23.2983C22.154 23.9293 21.4829 24.3521 20.9591 24.0348L20.9555 24.0327L15.718 20.9202L15.5999 20.85H15.4625C15.207 20.85 14.9544 20.8423 14.7045 20.8269C15.3801 19.7769 15.7463 18.5502 15.75 17.289V17.2875C15.75 13.4301 12.4188 10.3625 8.37505 10.3625C7.12981 10.3625 5.95834 10.6481 4.92563 11.1658C4.92524 11.1275 4.92505 11.0889 4.92505 11.05C4.92505 5.6705 9.60572 1.25 15.4625 1.25C21.3194 1.25 26 5.6705 26 11.05C26 14.2461 24.3555 17.0872 21.8006 18.8781Z" fill="#1DA1F2" stroke="black"/>
<path d="M3.44148 23.5621L3.44146 23.5621L3.44092 23.5666C3.31907 24.6024 4.45236 25.3756 5.37059 24.8158L8.51431 22.9488C10.8023 22.9091 12.8498 21.8929 14.1583 20.3086C15.1536 19.1372 15.75 17.6501 15.75 16.0375C15.75 12.1801 12.4188 9.11255 8.375 9.11255C6.82961 9.11255 5.39785 9.55236 4.2039 10.3299C2.27438 11.5635 1 13.6526 1 16.0375C1 18.2087 2.06045 20.1369 3.71672 21.3932L3.44148 23.5621Z" fill="#D3D2D6" stroke="black"/>
<path d="M7.46 15.055C7.37 15.055 7.31333 15.035 7.29 14.995C7.26667 14.955 7.26167 14.8983 7.275 14.825C7.325 14.5783 7.36833 14.31 7.405 14.02C7.44167 13.73 7.46 13.4383 7.46 13.145C7.46 12.945 7.45167 12.7667 7.435 12.61C7.42167 12.4533 7.37333 12.3067 7.29 12.17C7.27667 12.15 7.265 12.1317 7.255 12.115C7.24833 12.095 7.245 12.0783 7.245 12.065C7.245 12.0217 7.26833 11.98 7.315 11.94C7.365 11.8967 7.42333 11.86 7.49 11.83C7.55667 11.8 7.62 11.785 7.68 11.785C7.76 11.785 7.81667 11.8117 7.85 11.865C7.88667 11.9183 7.90833 11.985 7.915 12.065C7.92167 12.1417 7.925 12.22 7.925 12.3C7.925 12.38 7.92 12.47 7.91 12.57C7.90333 12.6667 7.895 12.7733 7.885 12.89C7.86833 13.0433 7.85167 13.2117 7.835 13.395C7.81833 13.575 7.81 13.7633 7.81 13.96C7.81 14.1833 7.81833 14.3667 7.835 14.51C7.85167 14.65 7.86333 14.7417 7.87 14.785C7.88 14.8417 7.86333 14.89 7.82 14.93C7.77667 14.97 7.72167 15 7.655 15.02C7.58833 15.0433 7.52333 15.055 7.46 15.055ZM9.365 15.045C9.23167 15.045 9.10333 15.0117 8.98 14.945C8.86 14.8783 8.74667 14.7917 8.64 14.685C8.53333 14.5783 8.43667 14.4617 8.35 14.335C8.26667 14.2083 8.19333 14.0833 8.13 13.96C8.07 13.8367 8.025 13.7283 7.995 13.635C7.965 13.545 7.95 13.4667 7.95 13.4C7.95 13.3267 7.97667 13.2383 8.03 13.135C8.07333 13.055 8.13667 12.9583 8.22 12.845C8.30333 12.7317 8.39833 12.6133 8.505 12.49C8.615 12.3667 8.72833 12.2517 8.845 12.145C8.965 12.0383 9.085 11.9517 9.205 11.885C9.325 11.8183 9.43667 11.785 9.54 11.785C9.63333 11.785 9.7 11.8133 9.74 11.87C9.78333 11.9233 9.805 11.985 9.805 12.055C9.805 12.1117 9.79333 12.1717 9.77 12.235C9.74667 12.2983 9.715 12.3517 9.675 12.395C9.635 12.4383 9.58833 12.46 9.535 12.46C9.50167 12.46 9.47 12.4567 9.44 12.45C9.41333 12.44 9.37833 12.435 9.335 12.435C9.29167 12.435 9.24 12.4433 9.18 12.46C9.12333 12.4767 9.06 12.5083 8.99 12.555C8.93333 12.595 8.86333 12.655 8.78 12.735C8.69667 12.8117 8.61167 12.9 8.525 13C8.43833 13.1 8.35833 13.2067 8.285 13.32C8.33167 13.4333 8.395 13.5483 8.475 13.665C8.555 13.7783 8.63833 13.885 8.725 13.985C8.88167 14.165 9.03167 14.2967 9.175 14.38C9.32167 14.4633 9.5 14.505 9.71 14.505C9.75333 14.505 9.78167 14.515 9.795 14.535C9.81167 14.555 9.82 14.5867 9.82 14.63C9.82 14.7267 9.78333 14.82 9.71 14.91C9.64 15 9.525 15.045 9.365 15.045ZM10.8071 15.065C10.5771 15.065 10.3921 15.0033 10.2521 14.88C10.1155 14.7533 10.0471 14.5683 10.0471 14.325C10.0471 14.2117 10.0621 14.1017 10.0921 13.995C10.1255 13.8883 10.1688 13.7883 10.2221 13.695C10.1688 13.7283 10.1288 13.745 10.1021 13.745C10.0621 13.745 10.0338 13.7233 10.0171 13.68C10.0038 13.6333 9.99715 13.5883 9.99715 13.545C9.99715 13.4683 10.0121 13.4083 10.0421 13.365C10.0755 13.3183 10.1071 13.2833 10.1371 13.26C10.2071 13.2 10.3171 13.135 10.4671 13.065C10.6171 12.9917 10.7971 12.955 11.0071 12.955C11.2938 12.955 11.5155 13.035 11.6721 13.195C11.8321 13.355 11.9121 13.5783 11.9121 13.865C11.9121 14.0883 11.8655 14.2917 11.7721 14.475C11.6788 14.655 11.5488 14.7983 11.3821 14.905C11.2188 15.0117 11.0271 15.065 10.8071 15.065ZM10.9621 14.555C11.1288 14.555 11.2688 14.5033 11.3821 14.4C11.4988 14.2933 11.5571 14.1533 11.5571 13.98C11.5571 13.8 11.4988 13.6717 11.3821 13.595C11.2655 13.5183 11.1305 13.48 10.9771 13.48C10.9071 13.48 10.8438 13.4867 10.7871 13.5C10.7305 13.5133 10.6771 13.53 10.6271 13.55C10.5805 13.6167 10.5388 13.6917 10.5021 13.775C10.4655 13.8583 10.4471 13.95 10.4471 14.05C10.4471 14.2167 10.4971 14.3433 10.5971 14.43C10.6971 14.5133 10.8188 14.555 10.9621 14.555ZM12.5774 15.055C12.4574 15.055 12.4041 15.015 12.4174 14.935C12.4541 14.7917 12.4841 14.6467 12.5074 14.5C12.5341 14.35 12.5474 14.2067 12.5474 14.07C12.5474 13.8933 12.5358 13.765 12.5124 13.685C12.4924 13.6017 12.4641 13.545 12.4274 13.515C12.3908 13.4817 12.3458 13.4567 12.2924 13.44C12.2691 13.43 12.2474 13.4167 12.2274 13.4C12.2108 13.3833 12.2024 13.36 12.2024 13.33C12.2024 13.2833 12.2208 13.2317 12.2574 13.175C12.2941 13.1183 12.3458 13.07 12.4124 13.03C12.4824 12.9867 12.5608 12.965 12.6474 12.965C12.7608 12.965 12.8391 13.005 12.8824 13.085C12.9258 13.1617 12.9474 13.2633 12.9474 13.39C12.9474 13.4733 12.9391 13.5667 12.9224 13.67C12.9058 13.7733 12.8891 13.8667 12.8724 13.95L12.8874 13.955C12.9541 13.7783 13.0341 13.615 13.1274 13.465C13.2241 13.3117 13.3358 13.1883 13.4624 13.095C13.5891 13.0017 13.7358 12.955 13.9024 12.955C14.0791 12.955 14.2141 13.0083 14.3074 13.115C14.4008 13.2217 14.4474 13.355 14.4474 13.515C14.4474 13.5817 14.4391 13.645 14.4224 13.705C14.4091 13.765 14.3941 13.8233 14.3774 13.88C14.3608 13.9333 14.3458 13.9883 14.3324 14.045C14.3224 14.1017 14.3174 14.1583 14.3174 14.215C14.3174 14.405 14.4074 14.5333 14.5874 14.6C14.6341 14.62 14.6574 14.65 14.6574 14.69C14.6574 14.72 14.6474 14.7633 14.6274 14.82C14.6074 14.8767 14.5708 14.93 14.5174 14.98C14.4641 15.0267 14.3858 15.05 14.2824 15.05C14.1491 15.05 14.0458 15.0033 13.9724 14.91C13.8991 14.8133 13.8624 14.6917 13.8624 14.545C13.8624 14.4617 13.8708 14.3783 13.8874 14.295C13.9074 14.2083 13.9274 14.1283 13.9474 14.055C13.9608 13.9983 13.9724 13.9433 13.9824 13.89C13.9958 13.8333 14.0024 13.7833 14.0024 13.74C14.0024 13.5867 13.9224 13.51 13.7624 13.51C13.6258 13.51 13.5058 13.5617 13.4024 13.665C13.2991 13.765 13.2108 13.8917 13.1374 14.045C13.0641 14.1983 13.0041 14.3533 12.9574 14.51V14.63C12.9574 14.7533 12.9224 14.855 12.8524 14.935C12.7858 15.015 12.6941 15.055 12.5774 15.055Z" fill="#1DA1F2"/>
<path d="M15.2581 15.055C15.1381 15.055 15.0848 15.015 15.0981 14.935C15.1348 14.7917 15.1648 14.6467 15.1881 14.5C15.2148 14.35 15.2281 14.2067 15.2281 14.07C15.2281 13.8933 15.2164 13.765 15.1931 13.685C15.1731 13.6017 15.1448 13.545 15.1081 13.515C15.0714 13.4817 15.0264 13.4567 14.9731 13.44C14.9498 13.43 14.9281 13.4167 14.9081 13.4C14.8914 13.3833 14.8831 13.36 14.8831 13.33C14.8831 13.2833 14.9014 13.2317 14.9381 13.175C14.9748 13.1183 15.0264 13.07 15.0931 13.03C15.1631 12.9867 15.2414 12.965 15.3281 12.965C15.4414 12.965 15.5198 13.005 15.5631 13.085C15.6064 13.1617 15.6281 13.2633 15.6281 13.39C15.6281 13.4733 15.6198 13.5667 15.6031 13.67C15.5864 13.7733 15.5698 13.8667 15.5531 13.95L15.5681 13.955C15.6348 13.7783 15.7148 13.615 15.8081 13.465C15.9048 13.3117 16.0164 13.1883 16.1431 13.095C16.2698 13.0017 16.4164 12.955 16.5831 12.955C16.7598 12.955 16.8948 13.0083 16.9881 13.115C17.0814 13.2217 17.1281 13.355 17.1281 13.515C17.1281 13.5817 17.1198 13.645 17.1031 13.705C17.0898 13.765 17.0748 13.8233 17.0581 13.88C17.0414 13.9333 17.0264 13.9883 17.0131 14.045C17.0031 14.1017 16.9981 14.1583 16.9981 14.215C16.9981 14.405 17.0881 14.5333 17.2681 14.6C17.3148 14.62 17.3381 14.65 17.3381 14.69C17.3381 14.72 17.3281 14.7633 17.3081 14.82C17.2881 14.8767 17.2514 14.93 17.1981 14.98C17.1448 15.0267 17.0664 15.05 16.9631 15.05C16.8298 15.05 16.7264 15.0033 16.6531 14.91C16.5798 14.8133 16.5431 14.6917 16.5431 14.545C16.5431 14.4617 16.5514 14.3783 16.5681 14.295C16.5881 14.2083 16.6081 14.1283 16.6281 14.055C16.6414 13.9983 16.6531 13.9433 16.6631 13.89C16.6764 13.8333 16.6831 13.7833 16.6831 13.74C16.6831 13.5867 16.6031 13.51 16.4431 13.51C16.3064 13.51 16.1864 13.5617 16.0831 13.665C15.9798 13.765 15.8914 13.8917 15.8181 14.045C15.7448 14.1983 15.6848 14.3533 15.6381 14.51V14.63C15.6381 14.7533 15.6031 14.855 15.5331 14.935C15.4664 15.015 15.3748 15.055 15.2581 15.055ZM18.4438 15.065C18.1904 15.065 17.9921 14.9933 17.8488 14.85C17.7088 14.7033 17.6388 14.5 17.6388 14.24C17.6388 14.0033 17.6904 13.7883 17.7938 13.595C17.8971 13.4017 18.0354 13.2483 18.2088 13.135C18.3854 13.0183 18.5788 12.96 18.7887 12.96C18.9888 12.96 19.1488 13.01 19.2688 13.11C19.3888 13.2067 19.4488 13.3367 19.4488 13.5C19.4488 13.63 19.4088 13.75 19.3288 13.86C19.2488 13.97 19.1421 14.0583 19.0088 14.125C18.8754 14.1883 18.7271 14.22 18.5638 14.22C18.3638 14.22 18.2004 14.175 18.0738 14.085C18.0771 14.2383 18.1288 14.3617 18.2288 14.455C18.3321 14.5483 18.4638 14.595 18.6238 14.595C18.7204 14.595 18.8188 14.5783 18.9188 14.545C19.0221 14.5083 19.1104 14.46 19.1838 14.4C19.2304 14.36 19.2738 14.34 19.3138 14.34C19.3471 14.34 19.3738 14.3517 19.3938 14.375C19.4171 14.395 19.4288 14.4217 19.4288 14.455C19.4288 14.5283 19.3654 14.625 19.2388 14.745C19.0154 14.9583 18.7504 15.065 18.4438 15.065ZM18.5188 13.89C18.6388 13.89 18.7388 13.865 18.8188 13.815C18.8988 13.765 18.9387 13.7017 18.9387 13.625C18.9387 13.5617 18.9121 13.5133 18.8588 13.48C18.8054 13.4433 18.7321 13.425 18.6388 13.425C18.5154 13.425 18.4071 13.4583 18.3138 13.525C18.2238 13.5883 18.1588 13.6783 18.1188 13.795C18.1654 13.825 18.2254 13.8483 18.2988 13.865C18.3721 13.8817 18.4454 13.89 18.5188 13.89ZM20.5371 15.065C20.3037 15.065 20.1204 14.995 19.9871 14.855C19.8571 14.7117 19.7921 14.5133 19.7921 14.26C19.7921 14.01 19.8454 13.7867 19.9521 13.59C20.0587 13.3933 20.2054 13.2383 20.3921 13.125C20.5787 13.0117 20.7904 12.955 21.0271 12.955C21.1871 12.955 21.3137 12.9817 21.4071 13.035C21.5004 13.0883 21.5471 13.1617 21.5471 13.255C21.5471 13.3383 21.5071 13.42 21.4271 13.5C21.3971 13.53 21.3571 13.5583 21.3071 13.585C21.2604 13.6083 21.2237 13.62 21.1971 13.62C21.1671 13.62 21.1421 13.6083 21.1221 13.585C21.0887 13.5483 21.0454 13.5133 20.9921 13.48C20.9387 13.4467 20.8637 13.43 20.7671 13.43C20.6037 13.43 20.4704 13.4867 20.3671 13.6C20.2637 13.71 20.2121 13.855 20.2121 14.035C20.2121 14.1983 20.2587 14.33 20.3521 14.43C20.4454 14.53 20.5687 14.58 20.7221 14.58C20.8021 14.58 20.8887 14.5667 20.9821 14.54C21.0787 14.51 21.1637 14.4683 21.2371 14.415C21.2737 14.3817 21.3121 14.365 21.3521 14.365C21.4187 14.365 21.4521 14.4067 21.4521 14.49C21.4521 14.6 21.3971 14.705 21.2871 14.805C21.2037 14.8817 21.0921 14.945 20.9521 14.995C20.8154 15.0417 20.6771 15.065 20.5371 15.065ZM22.5684 15.065C22.3651 15.065 22.2184 14.9983 22.1284 14.865C22.0418 14.7283 21.9984 14.5533 21.9984 14.34C21.9984 14.2633 22.0018 14.1883 22.0084 14.115C22.0184 14.0417 22.0284 13.9683 22.0384 13.895C22.0484 13.8217 22.0584 13.75 22.0684 13.68C22.0784 13.61 22.0868 13.5433 22.0934 13.48C22.0234 13.5 21.9534 13.51 21.8834 13.51C21.8101 13.51 21.7734 13.48 21.7734 13.42C21.7734 13.3567 21.8018 13.28 21.8584 13.19C21.9151 13.0967 21.9851 13.005 22.0684 12.915C22.1551 12.825 22.2401 12.75 22.3234 12.69C22.4101 12.6267 22.4834 12.595 22.5434 12.595C22.6168 12.595 22.6534 12.6583 22.6534 12.785C22.6534 12.8183 22.6501 12.8533 22.6434 12.89C22.6401 12.9233 22.6351 12.9583 22.6284 12.995C22.6918 12.9817 22.7551 12.97 22.8184 12.96C22.8851 12.95 22.9484 12.945 23.0084 12.945C23.0851 12.945 23.1434 12.9583 23.1834 12.985C23.2268 13.0117 23.2484 13.0633 23.2484 13.14C23.2484 13.22 23.2284 13.3 23.1884 13.38C23.1518 13.46 23.1101 13.5 23.0634 13.5C23.0534 13.5 23.0368 13.4983 23.0134 13.495C22.9901 13.4917 22.9618 13.4867 22.9284 13.48C22.8851 13.47 22.8301 13.46 22.7634 13.45C22.6968 13.44 22.6168 13.435 22.5234 13.435C22.5001 13.5383 22.4784 13.645 22.4584 13.755C22.4418 13.8617 22.4334 13.9583 22.4334 14.045C22.4334 14.2383 22.4818 14.37 22.5784 14.44C22.6751 14.51 22.8151 14.545 22.9984 14.545C23.0551 14.545 23.0951 14.555 23.1184 14.575C23.1418 14.5917 23.1534 14.6233 23.1534 14.67C23.1534 14.78 23.0968 14.8733 22.9834 14.95C22.8701 15.0267 22.7318 15.065 22.5684 15.065Z" fill="white"/>
</svg>
